<svg version="1.1" xmlns="http://www.w3.org/2000/svg" viewBox="0 0 1869.500020980835 2503" width="3739.00004196167" height="5006">
  <!-- svg-source:excalidraw -->
  
  <defs>
    <style class="style-fonts">
      @font-face {
        font-family: "Virgil";
        src: url("https://excalidraw.com/Virgil.woff2");
      }
      @font-face {
        font-family: "Cascadia";
        src: url("https://excalidraw.com/Cascadia.woff2");
      }
      @font-face {
        font-family: "Assistant";
        src: url("https://excalidraw.com/Assistant-Regular.woff2");
      }
    </style>
    
  </defs>
  <rect x="0" y="0" width="1869.500020980835" height="2503" fill="#ffffff"></rect><g transform="translate(148 10) rotate(0 411.70965576171875 362.5)"><text x="0" y="0" font-family="Virgil, Segoe UI Emoji" font-size="20px" fill="#1e1e1e" text-anchor="start" style="white-space: pre;" direction="ltr" dominant-baseline="text-before-edge">Functional Requirements:</text><text x="0" y="25" font-family="Virgil, Segoe UI Emoji" font-size="20px" fill="#1e1e1e" text-anchor="start" style="white-space: pre;" direction="ltr" dominant-baseline="text-before-edge">// Upload service</text><text x="0" y="50" font-family="Virgil, Segoe UI Emoji" font-size="20px" fill="#1e1e1e" text-anchor="start" style="white-space: pre;" direction="ltr" dominant-baseline="text-before-edge">1. Post pictures/videos with text caption.</text><text x="0" y="75" font-family="Virgil, Segoe UI Emoji" font-size="20px" fill="#1e1e1e" text-anchor="start" style="white-space: pre;" direction="ltr" dominant-baseline="text-before-edge"></text><text x="0" y="100" font-family="Virgil, Segoe UI Emoji" font-size="20px" fill="#1e1e1e" text-anchor="start" style="white-space: pre;" direction="ltr" dominant-baseline="text-before-edge">// Read service</text><text x="0" y="125" font-family="Virgil, Segoe UI Emoji" font-size="20px" fill="#1e1e1e" text-anchor="start" style="white-space: pre;" direction="ltr" dominant-baseline="text-before-edge">2. View photos/videos posted by users the current user follows, in newsfeed.</text><text x="0" y="150" font-family="Virgil, Segoe UI Emoji" font-size="20px" fill="#1e1e1e" text-anchor="start" style="white-space: pre;" direction="ltr" dominant-baseline="text-before-edge">3. Comment and like posts.</text><text x="0" y="175" font-family="Virgil, Segoe UI Emoji" font-size="20px" fill="#1e1e1e" text-anchor="start" style="white-space: pre;" direction="ltr" dominant-baseline="text-before-edge"></text><text x="0" y="200" font-family="Virgil, Segoe UI Emoji" font-size="20px" fill="#1e1e1e" text-anchor="start" style="white-space: pre;" direction="ltr" dominant-baseline="text-before-edge"></text><text x="0" y="225" font-family="Virgil, Segoe UI Emoji" font-size="20px" fill="#1e1e1e" text-anchor="start" style="white-space: pre;" direction="ltr" dominant-baseline="text-before-edge">5. Follow and unfollow other users.</text><text x="0" y="250" font-family="Virgil, Segoe UI Emoji" font-size="20px" fill="#1e1e1e" text-anchor="start" style="white-space: pre;" direction="ltr" dominant-baseline="text-before-edge">6. Search for users using name, handle.</text><text x="0" y="275" font-family="Virgil, Segoe UI Emoji" font-size="20px" fill="#1e1e1e" text-anchor="start" style="white-space: pre;" direction="ltr" dominant-baseline="text-before-edge">7. Search for posts using hashtags.</text><text x="0" y="300" font-family="Virgil, Segoe UI Emoji" font-size="20px" fill="#1e1e1e" text-anchor="start" style="white-space: pre;" direction="ltr" dominant-baseline="text-before-edge"></text><text x="0" y="325" font-family="Virgil, Segoe UI Emoji" font-size="20px" fill="#1e1e1e" text-anchor="start" style="white-space: pre;" direction="ltr" dominant-baseline="text-before-edge">Non-functional:</text><text x="0" y="350" font-family="Virgil, Segoe UI Emoji" font-size="20px" fill="#1e1e1e" text-anchor="start" style="white-space: pre;" direction="ltr" dominant-baseline="text-before-edge">1. Highly available: User should have something on the newsfeed.</text><text x="0" y="375" font-family="Virgil, Segoe UI Emoji" font-size="20px" fill="#1e1e1e" text-anchor="start" style="white-space: pre;" direction="ltr" dominant-baseline="text-before-edge">2. Eventually consistent: Acceptable if posts take time to show up in feed.</text><text x="0" y="400" font-family="Virgil, Segoe UI Emoji" font-size="20px" fill="#1e1e1e" text-anchor="start" style="white-space: pre;" direction="ltr" dominant-baseline="text-before-edge">3. Latency: Low latency to generate feed.</text><text x="0" y="425" font-family="Virgil, Segoe UI Emoji" font-size="20px" fill="#1e1e1e" text-anchor="start" style="white-space: pre;" direction="ltr" dominant-baseline="text-before-edge">4. Durability: No uploaded content should get lost.</text><text x="0" y="450" font-family="Virgil, Segoe UI Emoji" font-size="20px" fill="#1e1e1e" text-anchor="start" style="white-space: pre;" direction="ltr" dominant-baseline="text-before-edge">5. Scalability: Should scale to support millions of reads and writes.</text><text x="0" y="475" font-family="Virgil, Segoe UI Emoji" font-size="20px" fill="#1e1e1e" text-anchor="start" style="white-space: pre;" direction="ltr" dominant-baseline="text-before-edge">6. Reliability: able to handle s/w and h/w failures.</text><text x="0" y="500" font-family="Virgil, Segoe UI Emoji" font-size="20px" fill="#1e1e1e" text-anchor="start" style="white-space: pre;" direction="ltr" dominant-baseline="text-before-edge"></text><text x="0" y="525" font-family="Virgil, Segoe UI Emoji" font-size="20px" fill="#1e1e1e" text-anchor="start" style="white-space: pre;" direction="ltr" dominant-baseline="text-before-edge">Resource estimation:</text><text x="0" y="550" font-family="Virgil, Segoe UI Emoji" font-size="20px" fill="#1e1e1e" text-anchor="start" style="white-space: pre;" direction="ltr" dominant-baseline="text-before-edge">1 billion users</text><text x="0" y="575" font-family="Virgil, Segoe UI Emoji" font-size="20px" fill="#1e1e1e" text-anchor="start" style="white-space: pre;" direction="ltr" dominant-baseline="text-before-edge">500 million daily active users.</text><text x="0" y="600" font-family="Virgil, Segoe UI Emoji" font-size="20px" fill="#1e1e1e" text-anchor="start" style="white-space: pre;" direction="ltr" dominant-baseline="text-before-edge">50 million photos, 30 million videos per day.</text><text x="0" y="625" font-family="Virgil, Segoe UI Emoji" font-size="20px" fill="#1e1e1e" text-anchor="start" style="white-space: pre;" direction="ltr" dominant-baseline="text-before-edge">3MB max size of photos, 150MB max size of videos.</text><text x="0" y="650" font-family="Virgil, Segoe UI Emoji" font-size="20px" fill="#1e1e1e" text-anchor="start" style="white-space: pre;" direction="ltr" dominant-baseline="text-before-edge"></text><text x="0" y="675" font-family="Virgil, Segoe UI Emoji" font-size="20px" fill="#1e1e1e" text-anchor="start" style="white-space: pre;" direction="ltr" dominant-baseline="text-before-edge">Maximum storage cost from photos and videos. Can ignore metadata cost for now.</text><text x="0" y="700" font-family="Virgil, Segoe UI Emoji" font-size="20px" fill="#1e1e1e" text-anchor="start" style="white-space: pre;" direction="ltr" dominant-baseline="text-before-edge">(3*50*10^6 + 150*30*10^6) * ~400 = 465*10^7*400 = 16*10^11MB = 1600PB/year</text></g><g stroke-linecap="round" transform="translate(10 1018.5) rotate(0 64.25 62.75)"><path d="M31.38 0 C54.36 1.82, 82.37 1.52, 97.13 0 M31.38 0 C52.59 0.88, 71.89 -0.56, 97.13 0 M97.13 0 C118.25 -0.51, 129.98 10.28, 128.5 31.38 M97.13 0 C116.83 -1.04, 130.18 10.69, 128.5 31.38 M128.5 31.38 C129.95 44.54, 128.89 59.62, 128.5 94.13 M128.5 31.38 C129.03 47.94, 129 64.85, 128.5 94.13 M128.5 94.13 C128.05 115.9, 118.74 123.52, 97.13 125.5 M128.5 94.13 C127.35 113.23, 118.96 124.88, 97.13 125.5 M97.13 125.5 C72.73 123.43, 52.12 124.84, 31.38 125.5 M97.13 125.5 C76.92 126.28, 55.75 125.46, 31.38 125.5 M31.38 125.5 C11.92 125.73, -0.53 114.04, 0 94.13 M31.38 125.5 C10.55 126.42, -0.98 116.8, 0 94.13 M0 94.13 C0.64 73.25, 0.49 48.69, 0 31.38 M0 94.13 C-0.31 80.67, -1.14 68.19, 0 31.38 M0 31.38 C0.26 8.99, 12.08 -1.84, 31.38 0 M0 31.38 C-0.55 10.61, 9.7 -1.36, 31.38 0" stroke="#1e1e1e" stroke-width="2" fill="none"></path></g><g transform="translate(44.20001983642578 1068.75) rotate(0 30.04998016357422 12.5)"><text x="30.04998016357422" y="0" font-family="Virgil, Segoe UI Emoji" font-size="20px" fill="#1e1e1e" text-anchor="middle" style="white-space: pre;" direction="ltr" dominant-baseline="text-before-edge">User 1</text></g><g stroke-linecap="round" transform="translate(409.75 1020.75) rotate(0 64.25 62.75)"><path d="M31.38 0 C47.05 0.94, 61.12 -0.94, 97.13 0 M31.38 0 C49.84 0.39, 67.26 -0.52, 97.13 0 M97.13 0 C117.88 -1.11, 128.22 9.58, 128.5 31.38 M97.13 0 C118.07 0.78, 128.67 10.93, 128.5 31.38 M128.5 31.38 C128.73 48.79, 129.15 63.68, 128.5 94.13 M128.5 31.38 C128.96 49.32, 128.85 67.98, 128.5 94.13 M128.5 94.13 C128.86 115.76, 118.95 126.71, 97.13 125.5 M128.5 94.13 C128.12 115.01, 116.37 124.76, 97.13 125.5 M97.13 125.5 C80.87 125.33, 65.09 125.56, 31.38 125.5 M97.13 125.5 C78.29 125.29, 58.22 125.22, 31.38 125.5 M31.38 125.5 C9.97 126.75, 1.98 114.01, 0 94.13 M31.38 125.5 C10.42 125.98, 2.15 116.71, 0 94.13 M0 94.13 C0.69 76.08, 0.62 58.06, 0 31.38 M0 94.13 C-1.09 76.04, 0.01 55.04, 0 31.38 M0 31.38 C-0.31 9.24, 10.31 0.23, 31.38 0 M0 31.38 C0.39 9.71, 10.49 1.73, 31.38 0" stroke="#1e1e1e" stroke-width="2" fill="none"></path></g><g transform="translate(433.49002838134766 1058.5) rotate(0 40.509971618652344 25)"><text x="40.509971618652344" y="0" font-family="Virgil, Segoe UI Emoji" font-size="20px" fill="#1e1e1e" text-anchor="middle" style="white-space: pre;" direction="ltr" dominant-baseline="text-before-edge">Load </text><text x="40.509971618652344" y="25" font-family="Virgil, Segoe UI Emoji" font-size="20px" fill="#1e1e1e" text-anchor="middle" style="white-space: pre;" direction="ltr" dominant-baseline="text-before-edge">balancer</text></g><g stroke-linecap="round" transform="translate(654.25 918.75) rotate(0 64.25 62.75)"><path d="M31.38 0 C45.87 0.7, 61.62 -0.17, 97.13 0 M31.38 0 C56.21 0.67, 83.5 -0.34, 97.13 0 M97.13 0 C118.15 -0.25, 127.62 11, 128.5 31.38 M97.13 0 C115.96 1.17, 129.3 8.22, 128.5 31.38 M128.5 31.38 C128.52 54.3, 129.36 78.13, 128.5 94.13 M128.5 31.38 C128.11 44.58, 127.87 59.79, 128.5 94.13 M128.5 94.13 C127.01 113.31, 116.11 126.94, 97.13 125.5 M128.5 94.13 C127.89 116.47, 118.74 125.57, 97.13 125.5 M97.13 125.5 C79.73 127.08, 66.69 124.08, 31.38 125.5 M97.13 125.5 C84.23 125.33, 70.05 125.29, 31.38 125.5 M31.38 125.5 C8.62 124.35, -0.48 116.42, 0 94.13 M31.38 125.5 C10.48 123.2, 0.06 115.71, 0 94.13 M0 94.13 C1.09 78.59, -2.3 61.36, 0 31.38 M0 94.13 C0.71 71.78, -0.43 48.46, 0 31.38 M0 31.38 C1.47 10.28, 10.86 0.2, 31.38 0 M0 31.38 C-0.84 11.17, 11.57 -1.78, 31.38 0" stroke="#1e1e1e" stroke-width="2" fill="none"></path></g><g transform="translate(666.2300491333008 944) rotate(0 52.26995086669922 37.5)"><text x="52.26995086669922" y="0" font-family="Virgil, Segoe UI Emoji" font-size="20px" fill="#1e1e1e" text-anchor="middle" style="white-space: pre;" direction="ltr" dominant-baseline="text-before-edge">App Server</text><text x="52.26995086669922" y="25" font-family="Virgil, Segoe UI Emoji" font-size="20px" fill="#1e1e1e" text-anchor="middle" style="white-space: pre;" direction="ltr" dominant-baseline="text-before-edge">(Upload </text><text x="52.26995086669922" y="50" font-family="Virgil, Segoe UI Emoji" font-size="20px" fill="#1e1e1e" text-anchor="middle" style="white-space: pre;" direction="ltr" dominant-baseline="text-before-edge">server)</text></g><g stroke-linecap="round" transform="translate(651.75 1121.25) rotate(0 64.25 62.75)"><path d="M31.38 0 C48.46 -0.13, 65.47 -0.04, 97.13 0 M31.38 0 C54.26 0.96, 76.8 1.3, 97.13 0 M97.13 0 C118.36 -1.72, 127.51 9.82, 128.5 31.38 M97.13 0 C116.1 1.7, 126.27 11.05, 128.5 31.38 M128.5 31.38 C126.89 44.07, 127.05 60.78, 128.5 94.13 M128.5 31.38 C129.71 45.21, 128.22 58.74, 128.5 94.13 M128.5 94.13 C129.18 115.06, 118.76 125.47, 97.13 125.5 M128.5 94.13 C127.71 115.32, 120.14 124.63, 97.13 125.5 M97.13 125.5 C84.13 126.9, 71.18 124.64, 31.38 125.5 M97.13 125.5 C73.9 126.06, 52.6 125.55, 31.38 125.5 M31.38 125.5 C9.22 124.61, 0.13 114.73, 0 94.13 M31.38 125.5 C8.75 124.8, 0.86 114.03, 0 94.13 M0 94.13 C-0.08 79.65, 0.05 66.72, 0 31.38 M0 94.13 C-1.08 80.32, 0.59 65.53, 0 31.38 M0 31.38 C1.89 9.93, 8.54 0.95, 31.38 0 M0 31.38 C-2.04 10.28, 8.94 -0.5, 31.38 0" stroke="#1e1e1e" stroke-width="2" fill="none"></path></g><g transform="translate(663.7300491333008 1146.5) rotate(0 52.26995086669922 37.5)"><text x="52.26995086669922" y="0" font-family="Virgil, Segoe UI Emoji" font-size="20px" fill="#1e1e1e" text-anchor="middle" style="white-space: pre;" direction="ltr" dominant-baseline="text-before-edge">App Server</text><text x="52.26995086669922" y="25" font-family="Virgil, Segoe UI Emoji" font-size="20px" fill="#1e1e1e" text-anchor="middle" style="white-space: pre;" direction="ltr" dominant-baseline="text-before-edge">(Search </text><text x="52.26995086669922" y="50" font-family="Virgil, Segoe UI Emoji" font-size="20px" fill="#1e1e1e" text-anchor="middle" style="white-space: pre;" direction="ltr" dominant-baseline="text-before-edge">service)</text></g><g stroke-linecap="round" transform="translate(960.75 1115.75) rotate(0 64.25 62.75)"><path d="M31.38 0 C53.69 0.98, 77.89 1.57, 97.13 0 M31.38 0 C50.81 0.3, 68.25 0.16, 97.13 0 M97.13 0 C118.86 -0.69, 127.51 12.01, 128.5 31.38 M97.13 0 C119.06 0.11, 130.04 10.79, 128.5 31.38 M128.5 31.38 C130.11 45.94, 128.45 62.59, 128.5 94.13 M128.5 31.38 C129.25 44.87, 127.98 58.57, 128.5 94.13 M128.5 94.13 C128.31 116.84, 117.12 126.11, 97.13 125.5 M128.5 94.13 C126.58 112.95, 116.85 127.08, 97.13 125.5 M97.13 125.5 C69.77 124.86, 46.08 126.92, 31.38 125.5 M97.13 125.5 C73.62 126.44, 52.42 124.71, 31.38 125.5 M31.38 125.5 C10 126.57, 0.66 117, 0 94.13 M31.38 125.5 C12.26 126.13, -2.13 116.42, 0 94.13 M0 94.13 C0.4 71.02, -1.58 46.76, 0 31.38 M0 94.13 C0.42 71.43, -0.96 48.5, 0 31.38 M0 31.38 C0.96 11.44, 9.66 -1.09, 31.38 0 M0 31.38 C0.59 12.76, 9.66 0.12, 31.38 0" stroke="#1e1e1e" stroke-width="2" fill="none"></path></g><g transform="translate(973.0900497436523 1166) rotate(0 51.909950256347656 12.5)"><text x="51.909950256347656" y="0" font-family="Virgil, Segoe UI Emoji" font-size="20px" fill="#1e1e1e" text-anchor="middle" style="white-space: pre;" direction="ltr" dominant-baseline="text-before-edge">Blob store</text></g><g stroke-linecap="round"><g transform="translate(144 1085.6414467208601) rotate(0 43.25 -1.8207233604300654)"><path d="M-0.11 0.49 C14.33 -0.05, 71.62 -3.35, 85.95 -4.13 M-1.62 -0.3 C12.67 -0.61, 70.31 -2.37, 84.71 -2.84" stroke="#1e1e1e" stroke-width="2" fill="none"></path></g><g transform="translate(144 1085.6414467208601) rotate(0 43.25 -1.8207233604300654)"><path d="M61.5 6.44 C67.99 3.3, 71.97 0.94, 84.71 -2.84 M61.5 6.44 C67.75 3.13, 74.1 0.65, 84.71 -2.84" stroke="#1e1e1e" stroke-width="2" fill="none"></path></g><g transform="translate(144 1085.6414467208601) rotate(0 43.25 -1.8207233604300654)"><path d="M60.96 -10.65 C67.45 -9.66, 71.57 -7.89, 84.71 -2.84 M60.96 -10.65 C67.2 -9.63, 73.69 -7.78, 84.71 -2.84" stroke="#1e1e1e" stroke-width="2" fill="none"></path></g></g><mask></mask><g stroke-linecap="round"><g transform="translate(541.5 1081) rotate(0 53.25 -50.75)"><path d="M0.5 -0.69 C18.1 -17.5, 88.48 -85, 106.3 -101.74 M-0.7 1.56 C16.66 -14.98, 87.27 -82.86, 105.25 -100.32" stroke="#1e1e1e" stroke-width="2" fill="none"></path></g><g transform="translate(541.5 1081) rotate(0 53.25 -50.75)"><path d="M94.29 -77.85 C97.26 -86.34, 101.98 -92.52, 105.25 -100.32 M94.29 -77.85 C98.37 -85.05, 101.69 -92.38, 105.25 -100.32" stroke="#1e1e1e" stroke-width="2" fill="none"></path></g><g transform="translate(541.5 1081) rotate(0 53.25 -50.75)"><path d="M82.41 -90.16 C89.58 -94.25, 98.58 -96, 105.25 -100.32 M82.41 -90.16 C90.39 -93.33, 97.66 -96.57, 105.25 -100.32" stroke="#1e1e1e" stroke-width="2" fill="none"></path></g></g><mask></mask><g stroke-linecap="round"><g transform="translate(540 1078.5) rotate(0 51.75 51)"><path d="M-0.76 -0.84 C16.41 16.13, 86.89 85.62, 104.14 102.62 M1.04 1.34 C18.02 17.87, 86.17 84.04, 103.52 100.82" stroke="#1e1e1e" stroke-width="2" fill="none"></path></g><g transform="translate(540 1078.5) rotate(0 51.75 51)"><path d="M80.7 90.61 C88.29 95.8, 99.61 97.39, 103.52 100.82 M80.7 90.61 C86.81 92.88, 91.8 95.82, 103.52 100.82" stroke="#1e1e1e" stroke-width="2" fill="none"></path></g><g transform="translate(540 1078.5) rotate(0 51.75 51)"><path d="M92.6 78.33 C95.63 88.24, 102.31 94.62, 103.52 100.82 M92.6 78.33 C96.11 83.44, 98.39 89.17, 103.52 100.82" stroke="#1e1e1e" stroke-width="2" fill="none"></path></g></g><mask></mask><g stroke-linecap="round"><g transform="translate(785 965.7746659555405) rotate(0 98.25 3.357628885192071)"><path d="M-0.02 0.82 C32.66 1.83, 163.08 6.07, 195.73 7.08 M-1.49 0.21 C31.61 1.36, 165.32 3.8, 198.04 5.14" stroke="#1e1e1e" stroke-width="2" fill="none"></path></g><g transform="translate(785 965.7746659555405) rotate(0 98.25 3.357628885192071)"><path d="M174.32 13.03 C182.02 9.63, 187.65 7.82, 198.04 5.14 M174.32 13.03 C181.47 9.76, 189.08 8.84, 198.04 5.14" stroke="#1e1e1e" stroke-width="2" fill="none"></path></g><g transform="translate(785 965.7746659555405) rotate(0 98.25 3.357628885192071)"><path d="M174.8 -4.06 C182.51 -2.86, 188.02 -0.06, 198.04 5.14 M174.8 -4.06 C181.78 -1.98, 189.24 2.45, 198.04 5.14" stroke="#1e1e1e" stroke-width="2" fill="none"></path></g></g><mask></mask><g stroke-linecap="round"><g transform="translate(783.7500000000002 980.427645788337) rotate(0 115.37499999999977 65.78617710583148)"><path d="M0.5 -0.08 C39.08 21.78, 193.35 109.06, 231.61 131.05 M-0.7 -1.16 C37.8 20.87, 192.23 109.9, 231.11 132.32" stroke="#1e1e1e" stroke-width="2" fill="none"></path></g><g transform="translate(783.7500000000002 980.427645788337) rotate(0 115.37499999999977 65.78617710583148)"><path d="M206.49 127.99 C213.96 130.66, 220.84 129.39, 231.11 132.32 M206.49 127.99 C215.42 128.85, 222.38 130.22, 231.11 132.32" stroke="#1e1e1e" stroke-width="2" fill="none"></path></g><g transform="translate(783.7500000000002 980.427645788337) rotate(0 115.37499999999977 65.78617710583148)"><path d="M215.03 113.18 C219.85 120.46, 224.08 123.77, 231.11 132.32 M215.03 113.18 C221.07 118.76, 225.27 124.94, 231.11 132.32" stroke="#1e1e1e" stroke-width="2" fill="none"></path></g></g><mask></mask><g transform="translate(537.5 1797) rotate(0 198.01983642578125 100)"><text x="0" y="0" font-family="Virgil, Segoe UI Emoji" font-size="20px" fill="#1e1e1e" text-anchor="start" style="white-space: pre;" direction="ltr" dominant-baseline="text-before-edge">APIs</text><text x="0" y="25" font-family="Virgil, Segoe UI Emoji" font-size="20px" fill="#1e1e1e" text-anchor="start" style="white-space: pre;" direction="ltr" dominant-baseline="text-before-edge">POST /media(media_type, caption)</text><text x="0" y="50" font-family="Virgil, Segoe UI Emoji" font-size="20px" fill="#1e1e1e" text-anchor="start" style="white-space: pre;" direction="ltr" dominant-baseline="text-before-edge">GET /feed ()</text><text x="0" y="75" font-family="Virgil, Segoe UI Emoji" font-size="20px" fill="#1e1e1e" text-anchor="start" style="white-space: pre;" direction="ltr" dominant-baseline="text-before-edge">POST /comment (postid, comment)</text><text x="0" y="100" font-family="Virgil, Segoe UI Emoji" font-size="20px" fill="#1e1e1e" text-anchor="start" style="white-space: pre;" direction="ltr" dominant-baseline="text-before-edge">POST /like (postid, like:boolean)</text><text x="0" y="125" font-family="Virgil, Segoe UI Emoji" font-size="20px" fill="#1e1e1e" text-anchor="start" style="white-space: pre;" direction="ltr" dominant-baseline="text-before-edge">GET /search (text)</text><text x="0" y="150" font-family="Virgil, Segoe UI Emoji" font-size="20px" fill="#1e1e1e" text-anchor="start" style="white-space: pre;" direction="ltr" dominant-baseline="text-before-edge">POST /follower (followeeId, follow: bool)</text><text x="0" y="175" font-family="Virgil, Segoe UI Emoji" font-size="20px" fill="#1e1e1e" text-anchor="start" style="white-space: pre;" direction="ltr" dominant-baseline="text-before-edge"></text></g><g transform="translate(219.5 1793) rotate(0 117.36991119384766 350)"><text x="0" y="0" font-family="Virgil, Segoe UI Emoji" font-size="20px" fill="#1e1e1e" text-anchor="start" style="white-space: pre;" direction="ltr" dominant-baseline="text-before-edge">Tables</text><text x="0" y="25" font-family="Virgil, Segoe UI Emoji" font-size="20px" fill="#1e1e1e" text-anchor="start" style="white-space: pre;" direction="ltr" dominant-baseline="text-before-edge">- Users (~230 bytes): </text><text x="0" y="50" font-family="Virgil, Segoe UI Emoji" font-size="20px" fill="#1e1e1e" text-anchor="start" style="white-space: pre;" direction="ltr" dominant-baseline="text-before-edge">    - UserId: 8bytes </text><text x="0" y="75" font-family="Virgil, Segoe UI Emoji" font-size="20px" fill="#1e1e1e" text-anchor="start" style="white-space: pre;" direction="ltr" dominant-baseline="text-before-edge">    - Name: 100</text><text x="0" y="100" font-family="Virgil, Segoe UI Emoji" font-size="20px" fill="#1e1e1e" text-anchor="start" style="white-space: pre;" direction="ltr" dominant-baseline="text-before-edge">    - bio: 100</text><text x="0" y="125" font-family="Virgil, Segoe UI Emoji" font-size="20px" fill="#1e1e1e" text-anchor="start" style="white-space: pre;" direction="ltr" dominant-baseline="text-before-edge">    - handle: 20</text><text x="0" y="150" font-family="Virgil, Segoe UI Emoji" font-size="20px" fill="#1e1e1e" text-anchor="start" style="white-space: pre;" direction="ltr" dominant-baseline="text-before-edge">    </text><text x="0" y="175" font-family="Virgil, Segoe UI Emoji" font-size="20px" fill="#1e1e1e" text-anchor="start" style="white-space: pre;" direction="ltr" dominant-baseline="text-before-edge">- Photo (332)</text><text x="0" y="200" font-family="Virgil, Segoe UI Emoji" font-size="20px" fill="#1e1e1e" text-anchor="start" style="white-space: pre;" direction="ltr" dominant-baseline="text-before-edge">    -postid: 8bytes</text><text x="0" y="225" font-family="Virgil, Segoe UI Emoji" font-size="20px" fill="#1e1e1e" text-anchor="start" style="white-space: pre;" direction="ltr" dominant-baseline="text-before-edge">    -createdAt: 8</text><text x="0" y="250" font-family="Virgil, Segoe UI Emoji" font-size="20px" fill="#1e1e1e" text-anchor="start" style="white-space: pre;" direction="ltr" dominant-baseline="text-before-edge">    -updatedAt: 8</text><text x="0" y="275" font-family="Virgil, Segoe UI Emoji" font-size="20px" fill="#1e1e1e" text-anchor="start" style="white-space: pre;" direction="ltr" dominant-baseline="text-before-edge">    -mediaLink: 100</text><text x="0" y="300" font-family="Virgil, Segoe UI Emoji" font-size="20px" fill="#1e1e1e" text-anchor="start" style="white-space: pre;" direction="ltr" dominant-baseline="text-before-edge">    -caption: 200</text><text x="0" y="325" font-family="Virgil, Segoe UI Emoji" font-size="20px" fill="#1e1e1e" text-anchor="start" style="white-space: pre;" direction="ltr" dominant-baseline="text-before-edge">    -userId: 8</text><text x="0" y="350" font-family="Virgil, Segoe UI Emoji" font-size="20px" fill="#1e1e1e" text-anchor="start" style="white-space: pre;" direction="ltr" dominant-baseline="text-before-edge"></text><text x="0" y="375" font-family="Virgil, Segoe UI Emoji" font-size="20px" fill="#1e1e1e" text-anchor="start" style="white-space: pre;" direction="ltr" dominant-baseline="text-before-edge">- Video (332)</text><text x="0" y="400" font-family="Virgil, Segoe UI Emoji" font-size="20px" fill="#1e1e1e" text-anchor="start" style="white-space: pre;" direction="ltr" dominant-baseline="text-before-edge">    -postid: 8bytes</text><text x="0" y="425" font-family="Virgil, Segoe UI Emoji" font-size="20px" fill="#1e1e1e" text-anchor="start" style="white-space: pre;" direction="ltr" dominant-baseline="text-before-edge">    -createdAt: 8</text><text x="0" y="450" font-family="Virgil, Segoe UI Emoji" font-size="20px" fill="#1e1e1e" text-anchor="start" style="white-space: pre;" direction="ltr" dominant-baseline="text-before-edge">    -updatedAt: 8</text><text x="0" y="475" font-family="Virgil, Segoe UI Emoji" font-size="20px" fill="#1e1e1e" text-anchor="start" style="white-space: pre;" direction="ltr" dominant-baseline="text-before-edge">    -mediaLink: 100</text><text x="0" y="500" font-family="Virgil, Segoe UI Emoji" font-size="20px" fill="#1e1e1e" text-anchor="start" style="white-space: pre;" direction="ltr" dominant-baseline="text-before-edge">    -caption: 200</text><text x="0" y="525" font-family="Virgil, Segoe UI Emoji" font-size="20px" fill="#1e1e1e" text-anchor="start" style="white-space: pre;" direction="ltr" dominant-baseline="text-before-edge">    -userId: 8</text><text x="0" y="550" font-family="Virgil, Segoe UI Emoji" font-size="20px" fill="#1e1e1e" text-anchor="start" style="white-space: pre;" direction="ltr" dominant-baseline="text-before-edge"></text><text x="0" y="575" font-family="Virgil, Segoe UI Emoji" font-size="20px" fill="#1e1e1e" text-anchor="start" style="white-space: pre;" direction="ltr" dominant-baseline="text-before-edge">- Follower (16)</text><text x="0" y="600" font-family="Virgil, Segoe UI Emoji" font-size="20px" fill="#1e1e1e" text-anchor="start" style="white-space: pre;" direction="ltr" dominant-baseline="text-before-edge">    - FollowerId: 8</text><text x="0" y="625" font-family="Virgil, Segoe UI Emoji" font-size="20px" fill="#1e1e1e" text-anchor="start" style="white-space: pre;" direction="ltr" dominant-baseline="text-before-edge">    - FolloweeId: 8</text><text x="0" y="650" font-family="Virgil, Segoe UI Emoji" font-size="20px" fill="#1e1e1e" text-anchor="start" style="white-space: pre;" direction="ltr" dominant-baseline="text-before-edge"></text><text x="0" y="675" font-family="Virgil, Segoe UI Emoji" font-size="20px" fill="#1e1e1e" text-anchor="start" style="white-space: pre;" direction="ltr" dominant-baseline="text-before-edge"></text></g><g stroke-linecap="round"><g transform="translate(784.5 1175.8333020210266) rotate(0 86.75 -84.75)"><path d="M-0.86 0.64 C27.88 -27.49, 143.81 -140.18, 172.8 -168.44 M0.89 -0.07 C29.98 -28.54, 146.61 -141.53, 175.14 -170.01" stroke="#1e1e1e" stroke-width="2" fill="none"></path></g><g transform="translate(784.5 1175.8333020210266) rotate(0 86.75 -84.75)"><path d="M164.36 -147.45 C168.96 -156.05, 173.25 -163.06, 175.14 -170.01 M164.36 -147.45 C167.01 -155.98, 172.54 -162.9, 175.14 -170.01" stroke="#1e1e1e" stroke-width="2" fill="none"></path></g><g transform="translate(784.5 1175.8333020210266) rotate(0 86.75 -84.75)"><path d="M152.39 -159.66 C161 -164.11, 169.28 -167.05, 175.14 -170.01 M152.39 -159.66 C159.29 -164.02, 169 -166.69, 175.14 -170.01" stroke="#1e1e1e" stroke-width="2" fill="none"></path></g></g><mask></mask><g stroke-linecap="round"><g transform="translate(784.5 1177.3333020210266) rotate(0 87 2.25)"><path d="M0.83 0.74 C30.01 1.42, 146.04 4.32, 174.71 5.07 M-0.2 0.08 C28.93 0.32, 144.91 2.72, 174.13 3.25" stroke="#1e1e1e" stroke-width="2" fill="none"></path></g><g transform="translate(784.5 1177.3333020210266) rotate(0 87 2.25)"><path d="M150.48 11.34 C157.92 10.21, 163.92 4.97, 174.13 3.25 M150.48 11.34 C158.57 7.39, 167.77 6.08, 174.13 3.25" stroke="#1e1e1e" stroke-width="2" fill="none"></path></g><g transform="translate(784.5 1177.3333020210266) rotate(0 87 2.25)"><path d="M150.81 -5.76 C158.31 -2.34, 164.22 -3.05, 174.13 3.25 M150.81 -5.76 C158.78 -3.54, 167.86 1.3, 174.13 3.25" stroke="#1e1e1e" stroke-width="2" fill="none"></path></g></g><mask></mask><g stroke-linecap="round" transform="translate(971 1427.3333020210266) rotate(0 55.75 65.25)"><path d="M27.88 0 C42.81 1.29, 56.41 -1.07, 83.63 0 M27.88 0 C44.71 1.13, 62.4 -0.65, 83.63 0 M83.63 0 C102.11 -2, 111.44 9.14, 111.5 27.88 M83.63 0 C102.48 -1.79, 113.43 10.59, 111.5 27.88 M111.5 27.88 C110.14 51, 110.28 76.79, 111.5 102.63 M111.5 27.88 C111.44 55.26, 111.63 85.15, 111.5 102.63 M111.5 102.63 C111.75 119.48, 103.78 130.01, 83.63 130.5 M111.5 102.63 C113.15 123.44, 101.33 128.69, 83.63 130.5 M83.63 130.5 C61.17 129.13, 40.02 130.6, 27.88 130.5 M83.63 130.5 C68.96 130.46, 51.61 130.92, 27.88 130.5 M27.88 130.5 C10.72 130.77, -1.22 121.6, 0 102.63 M27.88 130.5 C9.84 128.95, 0.47 122.84, 0 102.63 M0 102.63 C0.57 81.34, 0.01 56.8, 0 27.88 M0 102.63 C0.64 86.72, -0.09 70.13, 0 27.88 M0 27.88 C-1.66 11.13, 10.28 1.82, 27.88 0 M0 27.88 C1.49 10.9, 8.86 0.49, 27.88 0" stroke="#1e1e1e" stroke-width="2" fill="none"></path></g><g transform="translate(981.4500350952148 1467.5833020210266) rotate(0 45.299964904785156 25)"><text x="45.299964904785156" y="0" font-family="Virgil, Segoe UI Emoji" font-size="20px" fill="#1e1e1e" text-anchor="middle" style="white-space: pre;" direction="ltr" dominant-baseline="text-before-edge">Cassandr</text><text x="45.299964904785156" y="25" font-family="Virgil, Segoe UI Emoji" font-size="20px" fill="#1e1e1e" text-anchor="middle" style="white-space: pre;" direction="ltr" dominant-baseline="text-before-edge">a/cache</text></g><g stroke-linecap="round" transform="translate(488.75 1421.5833020210266) rotate(0 73.75 92.5)"><path d="M32 0 C49.72 1.26, 71.99 0.32, 115.5 0 M32 0 C48.9 -0.34, 65.6 0.53, 115.5 0 M115.5 0 C135.49 -0.12, 147.81 8.81, 147.5 32 M115.5 0 C135.28 -0.33, 148.16 12.9, 147.5 32 M147.5 32 C147.04 72.41, 148.41 110.73, 147.5 153 M147.5 32 C145.46 57.35, 146.42 82, 147.5 153 M147.5 153 C146.29 174.03, 137.36 184.55, 115.5 185 M147.5 153 C146.64 175.66, 137.24 184.27, 115.5 185 M115.5 185 C86.98 185.67, 61.09 184.19, 32 185 M115.5 185 C85.92 184.81, 55.79 185.1, 32 185 M32 185 C11.35 184.32, -0.73 172.57, 0 153 M32 185 C9.11 187.13, -1.5 172.66, 0 153 M0 153 C-1.64 122.2, -2.6 96.77, 0 32 M0 153 C1.09 112.89, 0.94 72.78, 0 32 M0 32 C1.26 9.24, 10.63 -0.47, 32 0 M0 32 C-1.44 11.42, 10.68 -0.24, 32 0" stroke="#1e1e1e" stroke-width="2" fill="none"></path></g><g transform="translate(497.23006439208984 1426.5833020210266) rotate(0 65.26993560791016 87.5)"><text x="65.26993560791016" y="0" font-family="Virgil, Segoe UI Emoji" font-size="20px" fill="#1e1e1e" text-anchor="middle" style="white-space: pre;" direction="ltr" dominant-baseline="text-before-edge">App Server</text><text x="65.26993560791016" y="25" font-family="Virgil, Segoe UI Emoji" font-size="20px" fill="#1e1e1e" text-anchor="middle" style="white-space: pre;" direction="ltr" dominant-baseline="text-before-edge">(Timeline </text><text x="65.26993560791016" y="50" font-family="Virgil, Segoe UI Emoji" font-size="20px" fill="#1e1e1e" text-anchor="middle" style="white-space: pre;" direction="ltr" dominant-baseline="text-before-edge">service)</text><text x="65.26993560791016" y="75" font-family="Virgil, Segoe UI Emoji" font-size="20px" fill="#1e1e1e" text-anchor="middle" style="white-space: pre;" direction="ltr" dominant-baseline="text-before-edge">(Chronological</text><text x="65.26993560791016" y="100" font-family="Virgil, Segoe UI Emoji" font-size="20px" fill="#1e1e1e" text-anchor="middle" style="white-space: pre;" direction="ltr" dominant-baseline="text-before-edge">ordering,</text><text x="65.26993560791016" y="125" font-family="Virgil, Segoe UI Emoji" font-size="20px" fill="#1e1e1e" text-anchor="middle" style="white-space: pre;" direction="ltr" dominant-baseline="text-before-edge">fetch on </text><text x="65.26993560791016" y="150" font-family="Virgil, Segoe UI Emoji" font-size="20px" fill="#1e1e1e" text-anchor="middle" style="white-space: pre;" direction="ltr" dominant-baseline="text-before-edge">demand)</text></g><g stroke-linecap="round" transform="translate(966.25 1279.0833020210266) rotate(0 55.75 65.25)"><path d="M27.88 0 C44.24 1.62, 64.06 -0.5, 83.63 0 M27.88 0 C49.24 -0.16, 72.22 0.42, 83.63 0 M83.63 0 C103.92 0.25, 111.69 7.52, 111.5 27.88 M83.63 0 C103.99 1.94, 111.69 9.32, 111.5 27.88 M111.5 27.88 C111.2 44.83, 109.52 64.38, 111.5 102.63 M111.5 27.88 C112.79 52.75, 112.52 76.65, 111.5 102.63 M111.5 102.63 C109.9 121.43, 103.19 131.05, 83.63 130.5 M111.5 102.63 C111.39 119.09, 101.11 131.58, 83.63 130.5 M83.63 130.5 C69.49 130.25, 56.91 130.81, 27.88 130.5 M83.63 130.5 C67.2 131.55, 49.44 130.53, 27.88 130.5 M27.88 130.5 C9.01 129.88, 0.9 122.53, 0 102.63 M27.88 130.5 C9.72 130.31, -0.56 122.74, 0 102.63 M0 102.63 C0.41 79.55, 0.16 57.87, 0 27.88 M0 102.63 C-1.09 82.49, -0.68 62.19, 0 27.88 M0 27.88 C0.52 7.43, 9.56 -0.55, 27.88 0 M0 27.88 C0.9 9.47, 10.33 1.29, 27.88 0" stroke="#1e1e1e" stroke-width="2" fill="none"></path></g><g transform="translate(976.7000350952148 1319.3333020210266) rotate(0 45.299964904785156 25)"><text x="45.299964904785156" y="0" font-family="Virgil, Segoe UI Emoji" font-size="20px" fill="#1e1e1e" text-anchor="middle" style="white-space: pre;" direction="ltr" dominant-baseline="text-before-edge">Cassandr</text><text x="45.299964904785156" y="25" font-family="Virgil, Segoe UI Emoji" font-size="20px" fill="#1e1e1e" text-anchor="middle" style="white-space: pre;" direction="ltr" dominant-baseline="text-before-edge">a</text></g><g stroke-linecap="round" transform="translate(1335.5 1131.3333020210266) rotate(0 74.5 82.75)"><path d="M32 0 C63.94 2.45, 99.16 -1.05, 117 0 M32 0 C55.82 -0.35, 81.87 0.34, 117 0 M117 0 C138.58 0.2, 148.28 10.27, 149 32 M117 0 C138.45 2.13, 149.65 11.62, 149 32 M149 32 C148.06 59.51, 151.6 84.72, 149 133.5 M149 32 C149.35 65.31, 149.38 97.62, 149 133.5 M149 133.5 C148.64 155.97, 137.42 166.84, 117 165.5 M149 133.5 C149.3 156.77, 136.66 163.85, 117 165.5 M117 165.5 C84.92 165.86, 51.67 164.12, 32 165.5 M117 165.5 C83.3 167.18, 51.42 165.96, 32 165.5 M32 165.5 C11.11 164.23, -1.73 154.33, 0 133.5 M32 165.5 C8.71 166.89, 1.59 153.4, 0 133.5 M0 133.5 C-0.85 99.66, 0.53 62.68, 0 32 M0 133.5 C-0.28 105.01, 0.97 76.49, 0 32 M0 32 C-0.03 9.57, 10.35 -1.49, 32 0 M0 32 C-1.68 9.92, 9.4 -1.35, 32 0" stroke="#1e1e1e" stroke-width="2" fill="none"></path></g><g transform="translate(1374 1187.3333020210266) rotate(0 64.30994415283203 37.5)"><text x="0" y="0" font-family="Virgil, Segoe UI Emoji" font-size="20px" fill="#1e1e1e" text-anchor="start" style="white-space: pre;" direction="ltr" dominant-baseline="text-before-edge">Ingester</text><text x="0" y="25" font-family="Virgil, Segoe UI Emoji" font-size="20px" fill="#1e1e1e" text-anchor="start" style="white-space: pre;" direction="ltr" dominant-baseline="text-before-edge">(map posts</text><text x="0" y="50" font-family="Virgil, Segoe UI Emoji" font-size="20px" fill="#1e1e1e" text-anchor="start" style="white-space: pre;" direction="ltr" dominant-baseline="text-before-edge">to hashtags)</text></g><g stroke-linecap="round"><g transform="translate(1046.5000006410048 1025.452766166337) rotate(0 190.4999996794976 53.440267927344735)"><path d="M1.13 0.71 C16.72 7.38, 30.96 22.17, 94.39 39.88 C157.82 57.59, 334.01 95.61, 381.7 106.97 M0.27 0.03 C15.62 6.42, 29.94 20.29, 93.44 38.34 C156.95 56.39, 333.45 97.05, 381.3 108.34" stroke="#1e1e1e" stroke-width="2" fill="none"></path></g><g transform="translate(1046.5000006410048 1025.452766166337) rotate(0 190.4999996794976 53.440267927344735)"><path d="M356.48 111.31 C366.9 109.98, 376.82 110.03, 381.3 108.34 M356.48 111.31 C364.38 110.44, 371.73 109.74, 381.3 108.34" stroke="#1e1e1e" stroke-width="2" fill="none"></path></g><g transform="translate(1046.5000006410048 1025.452766166337) rotate(0 190.4999996794976 53.440267927344735)"><path d="M360.37 94.66 C369.32 99.56, 377.79 105.8, 381.3 108.34 M360.37 94.66 C367.02 98.95, 373.16 103.37, 381.3 108.34" stroke="#1e1e1e" stroke-width="2" fill="none"></path></g></g><mask></mask><g stroke-linecap="round"><g transform="translate(1411 1300.3333020210266) rotate(0 -166.5 20.25)"><path d="M-0.94 -0.94 C-17.7 5.84, -45.84 35.33, -101.31 40.58 C-156.78 45.83, -295.01 31.99, -333.78 30.58 M0.76 1.18 C-15.98 8.19, -46.29 37.07, -101.63 42.16 C-156.98 47.24, -292.54 33.68, -331.3 31.67" stroke="#1e1e1e" stroke-width="2" fill="none"></path></g><g transform="translate(1411 1300.3333020210266) rotate(0 -166.5 20.25)"><path d="M-307.24 24.85 C-314.43 28.24, -318.36 26.55, -331.3 31.67 M-307.24 24.85 C-313.89 27.43, -319.58 27.69, -331.3 31.67" stroke="#1e1e1e" stroke-width="2" fill="none"></path></g><g transform="translate(1411 1300.3333020210266) rotate(0 -166.5 20.25)"><path d="M-308.49 41.91 C-315.37 41.32, -319.01 35.64, -331.3 31.67 M-308.49 41.91 C-314.67 39.96, -320.03 35.71, -331.3 31.67" stroke="#1e1e1e" stroke-width="2" fill="none"></path></g></g><mask></mask><g stroke-linecap="round"><g transform="translate(720.5 1251.3333020210266) rotate(0 121.5 44)"><path d="M-0.78 0.21 C15.94 14.87, 60.43 76.05, 101.14 88.32 C141.84 100.58, 219.94 76.36, 243.44 73.81 M1.01 -0.73 C17.56 13.52, 60.2 73.69, 100.52 86.36 C140.84 99.03, 219.34 77.37, 242.91 75.3" stroke="#1e1e1e" stroke-width="2" fill="none"></path></g><g transform="translate(720.5 1251.3333020210266) rotate(0 121.5 44)"><path d="M221.18 87.66 C229.41 84.35, 237.52 79.52, 242.91 75.3 M221.18 87.66 C228.35 83.23, 234.83 80.59, 242.91 75.3" stroke="#1e1e1e" stroke-width="2" fill="none"></path></g><g transform="translate(720.5 1251.3333020210266) rotate(0 121.5 44)"><path d="M218.32 70.8 C227.64 73.66, 236.79 74.98, 242.91 75.3 M218.32 70.8 C226.3 71.88, 233.71 74.74, 242.91 75.3" stroke="#1e1e1e" stroke-width="2" fill="none"></path></g></g><mask></mask><g stroke-linecap="round"><g transform="translate(638.0000000000001 1500.7502968765036) rotate(0 164.24999999999994 -6.7112905811166)"><path d="M-0.3 -0.95 C54.83 -2.96, 274.68 -11.05, 329.66 -13.03 M1.74 1.16 C56.92 -1.13, 274.72 -12.27, 329.33 -14.94" stroke="#1e1e1e" stroke-width="2" fill="none"></path></g><g transform="translate(638.0000000000001 1500.7502968765036) rotate(0 164.24999999999994 -6.7112905811166)"><path d="M306.29 -5.23 C309.47 -5.21, 316.41 -7.33, 329.33 -14.94 M306.29 -5.23 C314.78 -7.68, 321.54 -11.71, 329.33 -14.94" stroke="#1e1e1e" stroke-width="2" fill="none"></path></g><g transform="translate(638.0000000000001 1500.7502968765036) rotate(0 164.24999999999994 -6.7112905811166)"><path d="M305.44 -22.31 C308.66 -18.81, 315.76 -17.46, 329.33 -14.94 M305.44 -22.31 C314.14 -18.79, 321.19 -16.86, 329.33 -14.94" stroke="#1e1e1e" stroke-width="2" fill="none"></path></g></g><mask></mask><g stroke-linecap="round" transform="translate(979 782.8333020210266) rotate(0 54.75 49.25)"><path d="M24.63 0 C49.18 -0.77, 69.28 -0.08, 84.88 0 M24.63 0 C42.33 -0.13, 58.65 0.6, 84.88 0 M84.88 0 C100.1 1.77, 110.04 8.58, 109.5 24.63 M84.88 0 C102.03 -0.47, 109.51 6.8, 109.5 24.63 M109.5 24.63 C110.96 36.2, 111.22 47.98, 109.5 73.88 M109.5 24.63 C108.92 39.53, 109.51 53.73, 109.5 73.88 M109.5 73.88 C108.06 89.75, 102.22 98.57, 84.88 98.5 M109.5 73.88 C109.47 92.32, 100.25 100.08, 84.88 98.5 M84.88 98.5 C63.62 97.91, 41.6 97.19, 24.63 98.5 M84.88 98.5 C60.46 98.24, 37.29 99.82, 24.63 98.5 M24.63 98.5 C8.46 98.25, -1.97 92.16, 0 73.88 M24.63 98.5 C6.24 96.22, -1.25 88.61, 0 73.88 M0 73.88 C1.07 54.29, 1.89 39.34, 0 24.63 M0 73.88 C0.9 56.77, -0.05 38.91, 0 24.63 M0 24.63 C-1.19 8.69, 9.48 1.09, 24.63 0 M0 24.63 C-0.57 9.56, 10.39 0.67, 24.63 0" stroke="#1e1e1e" stroke-width="2" fill="none"></path></g><g stroke-linecap="round" transform="translate(1113.25 785.0833020210266) rotate(0 54.75 49.25)"><path d="M24.63 0 C37.84 0.29, 49.31 1.87, 84.88 0 M24.63 0 C38.96 -1.22, 55.34 -0.96, 84.88 0 M84.88 0 C99.52 0.9, 111.03 8.77, 109.5 24.63 M84.88 0 C99.06 -1.58, 109.11 7.06, 109.5 24.63 M109.5 24.63 C109.47 37.31, 111.09 47.46, 109.5 73.88 M109.5 24.63 C108.6 39.13, 108.22 53.13, 109.5 73.88 M109.5 73.88 C109.13 88.95, 100.44 98.82, 84.88 98.5 M109.5 73.88 C111.63 89.92, 102.54 97.5, 84.88 98.5 M84.88 98.5 C72.08 97.93, 54.97 98.9, 24.63 98.5 M84.88 98.5 C65.51 98.45, 48.23 98.99, 24.63 98.5 M24.63 98.5 C6.58 98.66, -1.9 91.86, 0 73.88 M24.63 98.5 C7.58 97.9, 1.49 88.89, 0 73.88 M0 73.88 C-1.33 63.44, -1.5 49.54, 0 24.63 M0 73.88 C0.65 62.76, 0.31 52.27, 0 24.63 M0 24.63 C1.78 9.5, 7.41 -1.27, 24.63 0 M0 24.63 C1.38 7.01, 8.37 1.59, 24.63 0" stroke="#1e1e1e" stroke-width="2" fill="none"></path></g><g transform="translate(1130.0600357055664 821.8333020210266) rotate(0 37.939964294433594 12.5)"><text x="37.939964294433594" y="0" font-family="Virgil, Segoe UI Emoji" font-size="20px" fill="#1e1e1e" text-anchor="middle" style="white-space: pre;" direction="ltr" dominant-baseline="text-before-edge">Follower</text></g><g stroke-linecap="round" transform="translate(986.75 921.5833020210266) rotate(0 54.75 49.25)"><path d="M24.63 0 C50.31 -2.37, 73.34 1.02, 84.88 0 M24.63 0 C45.47 0.7, 65.94 0, 84.88 0 M84.88 0 C102.27 0.79, 109.83 8.65, 109.5 24.63 M84.88 0 C99.5 -0.33, 111.44 8.19, 109.5 24.63 M109.5 24.63 C107.64 42.99, 110.27 57.4, 109.5 73.88 M109.5 24.63 C109.62 43.67, 109.23 62.04, 109.5 73.88 M109.5 73.88 C109.95 90.45, 99.83 100.04, 84.88 98.5 M109.5 73.88 C110.47 88.37, 100.41 96.68, 84.88 98.5 M84.88 98.5 C74.19 98.95, 62.28 98.26, 24.63 98.5 M84.88 98.5 C65.73 98.54, 47.88 99.6, 24.63 98.5 M24.63 98.5 C9.65 98.33, 0.75 88.49, 0 73.88 M24.63 98.5 C6.17 97.67, -0.87 91.96, 0 73.88 M0 73.88 C0.5 55.62, -0.69 35.52, 0 24.63 M0 73.88 C-0.63 60.7, 0.29 46.7, 0 24.63 M0 24.63 C-1.22 8.44, 7.5 1.35, 24.63 0 M0 24.63 C0.49 8.19, 9.42 1.16, 24.63 0" stroke="#1e1e1e" stroke-width="2" fill="none"></path></g><g transform="translate(1007.7900390625 958.3333020210266) rotate(0 33.7099609375 12.5)"><text x="33.7099609375" y="0" font-family="Virgil, Segoe UI Emoji" font-size="20px" fill="#1e1e1e" text-anchor="middle" style="white-space: pre;" direction="ltr" dominant-baseline="text-before-edge">Photos</text></g><g stroke-linecap="round" transform="translate(1116.75 920.0833020210266) rotate(0 54.75 49.25)"><path d="M24.63 0 C40.55 -1.6, 57.69 0.71, 84.88 0 M24.63 0 C36.69 1.08, 49.79 1.26, 84.88 0 M84.88 0 C102.28 1.9, 109.8 8.3, 109.5 24.63 M84.88 0 C99.56 1.78, 107.69 7.22, 109.5 24.63 M109.5 24.63 C109.64 38.82, 108.01 49.74, 109.5 73.88 M109.5 24.63 C110.14 36.93, 109.23 50.69, 109.5 73.88 M109.5 73.88 C110.1 89.26, 100.65 97.94, 84.88 98.5 M109.5 73.88 C109.43 91.97, 99.81 98.98, 84.88 98.5 M84.88 98.5 C65.39 97.42, 46.81 98.56, 24.63 98.5 M84.88 98.5 C67.11 99.22, 48.17 98.46, 24.63 98.5 M24.63 98.5 C8.17 98.36, 1.14 91.66, 0 73.88 M24.63 98.5 C7.75 96.45, 1.39 90.65, 0 73.88 M0 73.88 C1.02 57.31, 1.17 44.54, 0 24.63 M0 73.88 C-0.11 56.59, 0.73 37.27, 0 24.63 M0 24.63 C-0.6 7.7, 7.69 -0.7, 24.63 0 M0 24.63 C0.93 7.93, 6.75 1.43, 24.63 0" stroke="#1e1e1e" stroke-width="2" fill="none"></path></g><g transform="translate(1142.0100326538086 956.8333020210266) rotate(0 29.489967346191406 12.5)"><text x="29.489967346191406" y="0" font-family="Virgil, Segoe UI Emoji" font-size="20px" fill="#1e1e1e" text-anchor="middle" style="white-space: pre;" direction="ltr" dominant-baseline="text-before-edge">Videos</text></g><g transform="translate(1018 796.3333020210266) rotate(0 22.339981079101562 25)"><text x="0" y="0" font-family="Virgil, Segoe UI Emoji" font-size="20px" fill="#1e1e1e" text-anchor="start" style="white-space: pre;" direction="ltr" dominant-baseline="text-before-edge"></text><text x="0" y="25" font-family="Virgil, Segoe UI Emoji" font-size="20px" fill="#1e1e1e" text-anchor="start" style="white-space: pre;" direction="ltr" dominant-baseline="text-before-edge">User</text></g><g stroke-linecap="round"><g transform="translate(779.7233247982617 952.6907722345588) rotate(0 195 -20.928735106766112)"><path d="M-0.92 0.73 C26.54 -6.16, 100.35 -35.36, 165.62 -41.97 C230.89 -48.57, 353.29 -39.6, 390.71 -38.9 M0.8 0.07 C28.53 -6.58, 102.8 -34.11, 167.72 -40.49 C232.64 -46.86, 353.2 -38.81, 390.32 -38.17" stroke="#1e1e1e" stroke-width="2" fill="none"></path></g><g transform="translate(779.7233247982617 952.6907722345588) rotate(0 195 -20.928735106766112)"><path d="M366.52 -30.52 C376.71 -35.14, 384.24 -34.89, 390.32 -38.17 M366.52 -30.52 C370.95 -31.16, 376.89 -33.42, 390.32 -38.17" stroke="#1e1e1e" stroke-width="2" fill="none"></path></g><g transform="translate(779.7233247982617 952.6907722345588) rotate(0 195 -20.928735106766112)"><path d="M367.17 -47.61 C377.03 -45.82, 384.31 -39.16, 390.32 -38.17 M367.17 -47.61 C371.49 -44.71, 377.29 -43.43, 390.32 -38.17" stroke="#1e1e1e" stroke-width="2" fill="none"></path></g></g><mask></mask><g stroke-linecap="round"><g transform="translate(784.1028483390809 946.6578137585634) rotate(0 84.38833760086919 -63.17873510676611)"><path d="M0.22 0.5 C-4.22 -20.8, -59.42 -106.67, -26.73 -127.25 C5.95 -147.84, 159.37 -123.73, 196.35 -122.98 M-1.12 -0.28 C-5.67 -21.51, -60.24 -105.9, -27.43 -126.19 C5.39 -146.48, 158.71 -122.74, 195.76 -122.03" stroke="#1e1e1e" stroke-width="2" fill="none"></path></g><g transform="translate(784.1028483390809 946.6578137585634) rotate(0 84.38833760086919 -63.17873510676611)"><path d="M171.62 -115.53 C179.49 -116.66, 184.21 -118.8, 195.76 -122.03 M171.62 -115.53 C178.07 -116.27, 182.44 -118.58, 195.76 -122.03" stroke="#1e1e1e" stroke-width="2" fill="none"></path></g><g transform="translate(784.1028483390809 946.6578137585634) rotate(0 84.38833760086919 -63.17873510676611)"><path d="M173.1 -132.57 C180.62 -128.71, 184.91 -125.87, 195.76 -122.03 M173.1 -132.57 C179.06 -129.18, 183.08 -127.37, 195.76 -122.03" stroke="#1e1e1e" stroke-width="2" fill="none"></path></g></g><mask></mask><g stroke-linecap="round"><g transform="translate(1182.5 1017.3333020210266) rotate(0 125.25 55)"><path d="M-1.01 0.36 C40.63 18.94, 207.36 92.77, 249.37 111.04 M0.66 -0.5 C42.7 17.81, 209.84 90.83, 251.49 109.46" stroke="#1e1e1e" stroke-width="2" fill="none"></path></g><g transform="translate(1182.5 1017.3333020210266) rotate(0 125.25 55)"><path d="M226.55 107.8 C233.55 106.56, 241.11 109.8, 251.49 109.46 M226.55 107.8 C233.8 107.76, 240.78 108.75, 251.49 109.46" stroke="#1e1e1e" stroke-width="2" fill="none"></path></g><g transform="translate(1182.5 1017.3333020210266) rotate(0 125.25 55)"><path d="M233.45 92.16 C238.62 94.88, 244.4 102.15, 251.49 109.46 M233.45 92.16 C238.76 96.82, 243.67 102.51, 251.49 109.46" stroke="#1e1e1e" stroke-width="2" fill="none"></path></g></g><mask></mask><g stroke-linecap="round" transform="translate(1484 815.3333020210266) rotate(0 66.5 86.75)"><path d="M32 0 C49.09 -0.94, 66.49 -0.1, 101 0 M32 0 C52.55 0.62, 71.5 0.02, 101 0 M101 0 C121.56 1.05, 132.76 10.47, 133 32 M101 0 C122.46 -0.14, 134.31 10.85, 133 32 M133 32 C130.88 66.3, 132.12 98.56, 133 141.5 M133 32 C134.13 63.54, 134.04 94.88, 133 141.5 M133 141.5 C134.82 162.55, 120.44 174.94, 101 173.5 M133 141.5 C132.04 163.72, 121.58 172.47, 101 173.5 M101 173.5 C74.89 175.63, 47.63 173.93, 32 173.5 M101 173.5 C78.23 173.55, 53.88 173.69, 32 173.5 M32 173.5 C12.28 173.28, -1.37 164.05, 0 141.5 M32 173.5 C12.83 173.58, -0.91 163.09, 0 141.5 M0 141.5 C0.91 116.04, -0.69 87.07, 0 32 M0 141.5 C-0.53 118.41, 0.46 95.76, 0 32 M0 32 C0.92 8.8, 11.82 -1.43, 32 0 M0 32 C1.81 10.34, 10.13 -0.06, 32 0" stroke="#1e1e1e" stroke-width="2" fill="none"></path></g><g transform="translate(1503.5 862.3333020210266) rotate(0 95.23991394042969 50)"><text x="0" y="0" font-family="Virgil, Segoe UI Emoji" font-size="20px" fill="#1e1e1e" text-anchor="start" style="white-space: pre;" direction="ltr" dominant-baseline="text-before-edge">fan-out service</text><text x="0" y="25" font-family="Virgil, Segoe UI Emoji" font-size="20px" fill="#1e1e1e" text-anchor="start" style="white-space: pre;" direction="ltr" dominant-baseline="text-before-edge">(Runs every minute)</text><text x="0" y="50" font-family="Virgil, Segoe UI Emoji" font-size="20px" fill="#1e1e1e" text-anchor="start" style="white-space: pre;" direction="ltr" dominant-baseline="text-before-edge">(collects posts</text><text x="0" y="75" font-family="Virgil, Segoe UI Emoji" font-size="20px" fill="#1e1e1e" text-anchor="start" style="white-space: pre;" direction="ltr" dominant-baseline="text-before-edge">)</text></g><g stroke-linecap="round" transform="translate(1247.5 852.8333020210266) rotate(0 88 44.5)"><path d="M22.25 0 C58.71 1.26, 92.4 -0.49, 153.75 0 M22.25 0 C57.69 -1.15, 91.36 -0.02, 153.75 0 M153.75 0 C169.3 -0.15, 176.26 7.77, 176 22.25 M153.75 0 C169.88 -0.27, 177.98 7.35, 176 22.25 M176 22.25 C176.38 33.69, 175.03 48.27, 176 66.75 M176 22.25 C175.43 33.65, 177.22 44.71, 176 66.75 M176 66.75 C174.34 82.81, 170.1 87.51, 153.75 89 M176 66.75 C176.93 80.04, 169.88 90.18, 153.75 89 M153.75 89 C122.18 91.85, 88.43 91.15, 22.25 89 M153.75 89 C104.58 88.74, 56.94 87.74, 22.25 89 M22.25 89 C5.65 89.14, 1.31 81.78, 0 66.75 M22.25 89 C6.03 88.49, -2.18 80.55, 0 66.75 M0 66.75 C0.61 58.91, -1.16 48.22, 0 22.25 M0 66.75 C-0.86 49.16, -0.38 31.39, 0 22.25 M0 22.25 C-0.17 9.33, 8.97 0.22, 22.25 0 M0 22.25 C-0.56 6.02, 6.93 -0.01, 22.25 0" stroke="#1e1e1e" stroke-width="2" fill="none"></path></g><g transform="translate(1306.150032043457 884.8333020210266) rotate(0 29.34996795654297 12.5)"><text x="29.34996795654297" y="0" font-family="Virgil, Segoe UI Emoji" font-size="20px" fill="#1e1e1e" text-anchor="middle" style="white-space: pre;" direction="ltr" dominant-baseline="text-before-edge">Queue</text></g><g stroke-linecap="round"><g transform="translate(1048 1021.3333020210266) rotate(0 123 -40.25)"><path d="M-0.74 -0.59 C39.8 -0.33, 202.8 14.7, 244.03 1.42 C285.25 -11.86, 246.47 -66.58, 246.6 -80.28 M1.07 1.71 C41.35 1.66, 201.98 13.77, 242.83 -0.22 C283.68 -14.21, 245.88 -69.02, 246.15 -82.24" stroke="#1e1e1e" stroke-width="2" fill="none"></path></g><g transform="translate(1048 1021.3333020210266) rotate(0 123 -40.25)"><path d="M261.62 -62.6 C255.03 -70.63, 251.92 -75.99, 246.15 -82.24 M261.62 -62.6 C256.09 -68.69, 250.11 -76.13, 246.15 -82.24" stroke="#1e1e1e" stroke-width="2" fill="none"></path></g><g transform="translate(1048 1021.3333020210266) rotate(0 123 -40.25)"><path d="M245.38 -57.25 C244.7 -67.13, 247.5 -74.43, 246.15 -82.24 M245.38 -57.25 C245.75 -65.3, 245.62 -74.67, 246.15 -82.24" stroke="#1e1e1e" stroke-width="2" fill="none"></path></g></g><mask></mask><g stroke-linecap="round"><g transform="translate(1226.5 980.8333020210266) rotate(0 31.25 -18.75)"><path d="M1.1 -0.52 C11.57 -6.61, 52.54 -31.35, 62.96 -37.58 M0.22 1.82 C10.56 -3.97, 51.71 -29.64, 62.25 -36.08" stroke="#1e1e1e" stroke-width="2" fill="none"></path></g><g transform="translate(1226.5 980.8333020210266) rotate(0 31.25 -18.75)"><path d="M46.75 -16.46 C50.87 -21.94, 56.44 -26.94, 62.25 -36.08 M46.75 -16.46 C51.29 -21.97, 54.32 -27.24, 62.25 -36.08" stroke="#1e1e1e" stroke-width="2" fill="none"></path></g><g transform="translate(1226.5 980.8333020210266) rotate(0 31.25 -18.75)"><path d="M37.77 -31.02 C44.55 -32.05, 52.92 -32.52, 62.25 -36.08 M37.77 -31.02 C44.6 -32.64, 50.02 -34.03, 62.25 -36.08" stroke="#1e1e1e" stroke-width="2" fill="none"></path></g></g><mask></mask><g stroke-linecap="round"><g transform="translate(1423 890.8333020210266) rotate(0 31.25 2.875141720942679)"><path d="M-1.08 -0.33 C9.2 0.43, 51.27 3.83, 61.85 4.85 M0.56 -1.54 C11.22 -0.69, 54.05 4.47, 64.22 5.91" stroke="#1e1e1e" stroke-width="2" fill="none"></path></g><g transform="translate(1423 890.8333020210266) rotate(0 31.25 2.875141720942679)"><path d="M39.83 11.4 C46.95 8.81, 53.66 7.95, 64.22 5.91 M39.83 11.4 C48.16 10.27, 54.73 7.76, 64.22 5.91" stroke="#1e1e1e" stroke-width="2" fill="none"></path></g><g transform="translate(1423 890.8333020210266) rotate(0 31.25 2.875141720942679)"><path d="M42 -5.56 C48.48 -2.84, 54.51 1.64, 64.22 5.91 M42 -5.56 C49.57 -1.58, 55.49 0.99, 64.22 5.91" stroke="#1e1e1e" stroke-width="2" fill="none"></path></g></g><mask></mask><g stroke-linecap="round"><g transform="translate(1560 992.3333020210266) rotate(0 -236 251.25)"><path d="M-1.16 0.02 C-0.58 69.54, 82.95 334.66, 3.8 418.24 C-75.34 501.83, -395.81 487.29, -476.04 501.51 M0.43 -1.02 C1.37 69.2, 85.65 335.76, 6.15 419.65 C-73.35 503.54, -395.89 488.66, -476.57 502.31" stroke="#1e1e1e" stroke-width="2" fill="none"></path></g><g transform="translate(1560 992.3333020210266) rotate(0 -236 251.25)"><path d="M-453.68 492.27 C-461.08 494.19, -469.07 499.41, -476.57 502.31 M-453.68 492.27 C-457.77 494, -464 497.61, -476.57 502.31" stroke="#1e1e1e" stroke-width="2" fill="none"></path></g><g transform="translate(1560 992.3333020210266) rotate(0 -236 251.25)"><path d="M-452.58 509.34 C-460.5 505.63, -468.85 505.24, -476.57 502.31 M-452.58 509.34 C-456.75 507.36, -463.22 507.25, -476.57 502.31" stroke="#1e1e1e" stroke-width="2" fill="none"></path></g></g><mask></mask><g stroke-linecap="round" transform="translate(981.8333530426025 1630.9998984336853) rotate(0 60.5 74.25)"><path d="M30.25 0 C55.12 -0.95, 76.25 -1.64, 90.75 0 M30.25 0 C50.43 0.43, 70.38 -0.74, 90.75 0 M90.75 0 C111.13 0.85, 119.51 10.96, 121 30.25 M90.75 0 C108.7 -1.29, 120.18 8.6, 121 30.25 M121 30.25 C123.14 49.42, 120.63 65.05, 121 118.25 M121 30.25 C121.59 52.2, 120.48 73.84, 121 118.25 M121 118.25 C119.67 137.9, 112.82 148.49, 90.75 148.5 M121 118.25 C120.09 138.89, 112.6 146.34, 90.75 148.5 M90.75 148.5 C76.75 148.46, 60.13 149.45, 30.25 148.5 M90.75 148.5 C78.09 147.92, 64.39 149.31, 30.25 148.5 M30.25 148.5 C9.92 146.72, -1.72 137.59, 0 118.25 M30.25 148.5 C9.04 146.78, -0.4 137.36, 0 118.25 M0 118.25 C1.77 86.34, 0.21 59.65, 0 30.25 M0 118.25 C0.17 89.72, 0.05 61.02, 0 30.25 M0 30.25 C1.14 10.46, 9.64 -0.73, 30.25 0 M0 30.25 C0.16 9.5, 8.67 1.63, 30.25 0" stroke="#1e1e1e" stroke-width="2" fill="none"></path></g><g transform="translate(997.3333530426025 1678.9998984336853) rotate(0 49.02995300292969 12.5)"><text x="0" y="0" font-family="Virgil, Segoe UI Emoji" font-size="20px" fill="#1e1e1e" text-anchor="start" style="white-space: pre;" direction="ltr" dominant-baseline="text-before-edge">Purge Job</text></g><g stroke-linecap="round"><g transform="translate(1026.8333530426025 1631.4998984336853) rotate(0 -1.5 -39.25)"><path d="M0.63 0.01 C0 -13.17, -2.68 -66.09, -3.09 -79.24 M-0.49 -1.03 C-1.36 -14.05, -3.83 -65.3, -4.08 -78.1" stroke="#1e1e1e" stroke-width="2" fill="none"></path></g><g transform="translate(1026.8333530426025 1631.4998984336853) rotate(0 -1.5 -39.25)"><path d="M5.32 -54.93 C1.98 -63.38, -2.67 -69.62, -4.08 -78.1 M5.32 -54.93 C2.84 -60.59, -0.05 -68.08, -4.08 -78.1" stroke="#1e1e1e" stroke-width="2" fill="none"></path></g><g transform="translate(1026.8333530426025 1631.4998984336853) rotate(0 -1.5 -39.25)"><path d="M-11.77 -54.31 C-8.94 -63.08, -7.42 -69.54, -4.08 -78.1 M-11.77 -54.31 C-9.71 -60.19, -8.05 -67.84, -4.08 -78.1" stroke="#1e1e1e" stroke-width="2" fill="none"></path></g></g><mask></mask><g stroke-linecap="round" transform="translate(232.83335256576538 1034.6665687561035) rotate(0 60.25 65.25)"><path d="M30.13 0 C43.58 0.55, 56.49 1.05, 90.38 0 M30.13 0 C49.31 -0.67, 70.31 1.11, 90.38 0 M90.38 0 C110.59 -1.27, 119.2 10.55, 120.5 30.13 M90.38 0 C110.42 -1.45, 121.4 10.38, 120.5 30.13 M120.5 30.13 C118.82 46.55, 118.72 59.97, 120.5 100.38 M120.5 30.13 C119.89 51, 119.76 72.54, 120.5 100.38 M120.5 100.38 C119.75 119.03, 111.65 132.2, 90.38 130.5 M120.5 100.38 C119.1 122.25, 108.59 129.97, 90.38 130.5 M90.38 130.5 C76.76 130.64, 61.9 131.85, 30.13 130.5 M90.38 130.5 C75.64 129.74, 59.17 130.65, 30.13 130.5 M30.13 130.5 C9.46 132.43, 1.73 119.61, 0 100.38 M30.13 130.5 C11.35 131.55, 1.72 119.41, 0 100.38 M0 100.38 C1.41 80.62, -0.79 63.22, 0 30.13 M0 100.38 C-0.46 77.97, 0.1 55.61, 0 30.13 M0 30.13 C-1.01 11.76, 10.18 0.31, 30.13 0 M0 30.13 C0.4 8.57, 11.14 -0.73, 30.13 0" stroke="#1e1e1e" stroke-width="2" fill="none"></path></g><g transform="translate(272.40336751937866 1087.4165687561035) rotate(0 20.67998504638672 12.5)"><text x="20.67998504638672" y="0" font-family="Virgil, Segoe UI Emoji" font-size="20px" fill="#1e1e1e" text-anchor="middle" style="white-space: pre;" direction="ltr" dominant-baseline="text-before-edge">CDN</text></g><g stroke-linecap="round"><g transform="translate(351.8333525657654 1087.1665687561035) rotate(0 28.25 -1.25)"><path d="M0.11 -0.81 C9.39 -1.01, 47.32 -1.63, 56.78 -1.89 M-1.29 1.38 C7.75 0.89, 46.38 -3.3, 55.97 -3.69" stroke="#1e1e1e" stroke-width="2" fill="none"></path></g><g transform="translate(351.8333525657654 1087.1665687561035) rotate(0 28.25 -1.25)"><path d="M33.22 6.68 C40.9 3.03, 52.25 -0.92, 55.97 -3.69 M33.22 6.68 C41.02 4.19, 47.19 -0.54, 55.97 -3.69" stroke="#1e1e1e" stroke-width="2" fill="none"></path></g><g transform="translate(351.8333525657654 1087.1665687561035) rotate(0 28.25 -1.25)"><path d="M31.88 -10.37 C39.99 -7.3, 51.87 -4.53, 55.97 -3.69 M31.88 -10.37 C40.27 -7.5, 46.86 -6.88, 55.97 -3.69" stroke="#1e1e1e" stroke-width="2" fill="none"></path></g></g><mask></mask><g stroke-linecap="round"><g transform="translate(638.6666724681854 1498.0805631899211) rotate(0 159.25 -153.15645131211204)"><path d="M-1.07 0.44 C51.85 -50.67, 264.89 -255, 318.17 -306.11 M0.57 -0.38 C53.24 -51.92, 264.16 -257.38, 317.05 -308.13" stroke="#1e1e1e" stroke-width="2" fill="none"></path></g><g transform="translate(638.6666724681854 1498.0805631899211) rotate(0 159.25 -153.15645131211204)"><path d="M306.11 -285.65 C310.62 -294.08, 314.1 -301.35, 317.05 -308.13 M306.11 -285.65 C309.39 -292.91, 312.86 -298.98, 317.05 -308.13" stroke="#1e1e1e" stroke-width="2" fill="none"></path></g><g transform="translate(638.6666724681854 1498.0805631899211) rotate(0 159.25 -153.15645131211204)"><path d="M294.22 -297.93 C303 -301.9, 310.7 -304.81, 317.05 -308.13 M294.22 -297.93 C301.13 -301.45, 308.23 -303.76, 317.05 -308.13" stroke="#1e1e1e" stroke-width="2" fill="none"></path></g></g><mask></mask><g stroke-linecap="round"><g transform="translate(541.3333296775818 1081.166580915451) rotate(0 11.75 170.25)"><path d="M0.18 -0.44 C3.9 56.34, 19.53 282.76, 23.4 339.76 M-1.19 -1.72 C2.27 55.28, 18.44 283.99, 22.4 340.91" stroke="#1e1e1e" stroke-width="2" fill="none"></path></g><g transform="translate(541.3333296775818 1081.166580915451) rotate(0 11.75 170.25)"><path d="M12.23 318.07 C15.28 326.81, 18.76 335.71, 22.4 340.91 M12.23 318.07 C16.18 327.2, 20.49 336.08, 22.4 340.91" stroke="#1e1e1e" stroke-width="2" fill="none"></path></g><g transform="translate(541.3333296775818 1081.166580915451) rotate(0 11.75 170.25)"><path d="M29.29 316.88 C25.67 326.11, 22.49 335.47, 22.4 340.91 M29.29 316.88 C26.56 326.63, 24.18 335.98, 22.4 340.91" stroke="#1e1e1e" stroke-width="2" fill="none"></path></g></g><mask></mask><g stroke-linecap="round" transform="translate(1724.000020980835 982.9999108314514) rotate(0 67.75 80)"><path d="M32 0 C46.06 -1.84, 61.31 -0.65, 103.5 0 M32 0 C47.11 -0.4, 61.88 -0.49, 103.5 0 M103.5 0 C125.18 1.03, 135.16 12.22, 135.5 32 M103.5 0 C125.49 -1.17, 136.61 10.28, 135.5 32 M135.5 32 C133.49 50.86, 135.09 74.48, 135.5 128 M135.5 32 C134.49 58.59, 134.36 85.34, 135.5 128 M135.5 128 C135.08 147.73, 126.78 161.04, 103.5 160 M135.5 128 C134.59 147.07, 124.55 161.41, 103.5 160 M103.5 160 C84.13 162.13, 62.54 161.72, 32 160 M103.5 160 C85.84 161.1, 68.97 159.45, 32 160 M32 160 C10.9 158.41, 1.41 150.98, 0 128 M32 160 C8.7 161.36, 2.01 147.48, 0 128 M0 128 C2.13 108.97, 1.47 89.62, 0 32 M0 128 C-0.18 96.7, 0.06 66.05, 0 32 M0 32 C0.21 10.56, 9.15 -0.29, 32 0 M0 32 C0.85 8.69, 11.1 -1.77, 32 0" stroke="#1e1e1e" stroke-width="2" fill="none"></path></g><g transform="translate(1735.8333389759064 1025.3332557678223) rotate(0 56.26994323730469 12.5)"><text x="0" y="0" font-family="Virgil, Segoe UI Emoji" font-size="20px" fill="#1e1e1e" text-anchor="start" style="white-space: pre;" direction="ltr" dominant-baseline="text-before-edge">celebrity db</text></g><g stroke-linecap="round"><g transform="translate(1230.500001192093 981.1665804386139) rotate(0 248 31.75)"><path d="M0.99 1.12 C83.77 11.51, 413.93 52.43, 496.48 63.02 M0.05 0.66 C82.73 11.16, 413.17 53.92, 495.78 64.3" stroke="#1e1e1e" stroke-width="2" fill="none"></path></g><g transform="translate(1230.500001192093 981.1665804386139) rotate(0 248 31.75)"><path d="M471.4 69.8 C480.14 68.85, 484.37 67.01, 495.78 64.3 M471.4 69.8 C481.46 68.52, 491.54 64.92, 495.78 64.3" stroke="#1e1e1e" stroke-width="2" fill="none"></path></g><g transform="translate(1230.500001192093 981.1665804386139) rotate(0 248 31.75)"><path d="M473.57 52.84 C481.79 56.7, 485.4 59.67, 495.78 64.3 M473.57 52.84 C482.74 58.29, 491.96 61.44, 495.78 64.3" stroke="#1e1e1e" stroke-width="2" fill="none"></path></g></g><mask></mask><g stroke-linecap="round"><g transform="translate(640.4999616146089 1508.1689708233766) rotate(0 574.25 -117.76915903441306)"><path d="M-0.2 0.21 C129.51 21.61, 585.99 187.64, 777.33 127.23 C968.68 66.81, 1086.1 -280.57, 1147.88 -362.28 M-1.76 -0.72 C128.42 20.4, 588.27 185.37, 779.7 125.33 C971.12 65.3, 1085.4 -279.67, 1146.8 -360.93" stroke="#1e1e1e" stroke-width="2" fill="none"></path></g><g transform="translate(640.4999616146089 1508.1689708233766) rotate(0 574.25 -117.76915903441306)"><path d="M1143.12 -336.2 C1144.53 -342.81, 1145.71 -348.24, 1146.8 -360.93 M1143.12 -336.2 C1144.17 -343.23, 1145.7 -350.38, 1146.8 -360.93" stroke="#1e1e1e" stroke-width="2" fill="none"></path></g><g transform="translate(640.4999616146089 1508.1689708233766) rotate(0 574.25 -117.76915903441306)"><path d="M1128.09 -344.35 C1132.76 -349.12, 1137.29 -352.73, 1146.8 -360.93 M1128.09 -344.35 C1133.69 -348.81, 1139.81 -353.47, 1146.8 -360.93" stroke="#1e1e1e" stroke-width="2" fill="none"></path></g></g><mask></mask></svg>